# xmcd
#
# Track frame offsets: 
#        150
#        21810
#        44682
#        68490
#        91912
#        110582
#        132930
#        150035
#        172795
#        194565
#        227310
#
# Disc length: 4440 seconds
#
# Revision: 1
# Processed by: cddbd v1.5.2PL0 Copyright (c) Steve Scherf et al.
# Submitted via: ExactAudioCopy v0.95b4
#
DISCID=7c11560b
DTITLE=Changin' My Life - The Best of My Life
DYEAR=1900
DGENRE=J-Pop
TTITLE0=Confidence
TTITLE1=Myself
TTITLE2=ETERNAL SNOW
TTITLE3=Luv. Remix
TTITLE4=Ajisai
TTITLE5=Star Dust
TTITLE6=Etoranze
TTITLE7=New Future
TTITLE8=Love Chronicle
TTITLE9=Kurisumasu ni Kuchizuke o (plan:it-b remix)
TTITLE10=DATA
EXTD=
EXTT0=
EXTT1=
EXTT2=
EXTT3=
EXTT4=
EXTT5=
EXTT6=
EXTT7=
EXTT8=
EXTT9=
EXTT10=
PLAYORDER=
